<?xml version="1.0" encoding="iso-8859-1"?>
<svg version="1.1" id="Capa_1" xmlns="http://www.w3.org/2000/svg" xmlns:xlink="http://www.w3.org/1999/xlink" x="0px" y="0px"
	 viewBox="0 0 34 24" style="enable-background:new 0 0 21.825 21.825;" xml:space="preserve">
<path d="M2.03521 13.1509C2.03521 9.75546 4.79762 6.99306 8.19301 6.99306H27.2491L24.1768 10.0627L25.5805 11.4691L30.3478 6.70173C30.5332 6.51633 30.6392 6.26207 30.6392 5.99722C30.6392 5.73237 30.5332 5.48076 30.3478 5.29272L25.5805 0.525391L24.1768 1.93175L27.2491 5.00138H8.19301C3.70113 5.00138 0.0488281 8.65633 0.0488281 13.1456H2.03521V13.1509Z" fill="white"/>
<path d="M24.8798 16.924H5.82369L8.89597 13.8544L7.49226 12.448L2.72493 17.2153C2.53953 17.4007 2.43359 17.655 2.43359 17.9198C2.43359 18.1847 2.53953 18.4363 2.72493 18.6243L7.49226 23.3917L8.89597 21.9853L5.82369 18.9157H24.8798C29.3716 18.9157 33.0239 15.2607 33.0239 10.7715H31.0376C31.0376 14.1616 28.2752 16.924 24.8798 16.924Z" fill="white"/>
</svg>
