<?xml version="1.0" encoding="iso-8859-1"?>
<svg version="1.1" id="Capa_1" xmlns="http://www.w3.org/2000/svg" xmlns:xlink="http://www.w3.org/1999/xlink" x="0px" y="0px"
	 width="36" height="38" viewBox="0 0 36 38" fill="none" xml:space="preserve">
<path d="M14.4246 25.8382C19.1291 25.7935 23.5509 22.8606 25.1588 18.3793C26.8262 13.764 25.4119 8.64258 21.6601 5.50122C17.9828 2.4343 12.5487 2.13655 8.48426 4.59306C4.41984 7.04957 2.23131 11.9775 3.19903 16.6374C4.31563 21.9673 9.00533 25.7935 14.4246 25.8382C16.3451 25.8531 16.3451 28.8307 14.4246 28.8158C8.36515 28.7711 2.94593 24.9598 0.846732 19.2726C-1.22269 13.6747 0.593637 7.03468 5.23868 3.28292C9.94328 -0.5284 16.6577 -1.12392 21.8685 2.03233C27.0644 5.17369 29.6996 11.3075 28.5532 17.2478C27.2729 23.9325 21.1539 28.7711 14.4097 28.8158C12.5189 28.8307 12.504 25.8531 14.4246 25.8382Z" fill="white"/>
	<path d="M23.8786 23.1737C27.2731 26.5681 30.6824 29.9775 34.0769 33.3719C34.5682 33.8632 35.0595 34.3545 35.5359 34.831C36.8907 36.1858 34.7915 38.2999 33.4367 36.9302C30.0422 33.5357 26.6329 30.1264 23.2384 26.7319C22.7471 26.2406 22.2558 25.7493 21.7794 25.2729C20.4246 23.9181 22.5238 21.8189 23.8786 23.1737Z" fill="white"/>
</svg>
